<svg width="33" height="33" viewBox="0 0 33 33" fill="none" xmlns="http://www.w3.org/2000/svg">
<g id="edit-profile-svgrepo-com 1">
<path id="Vector" d="M2.75 28.8749H11C11.3647 28.8749 11.7144 28.73 11.9723 28.4722C12.2301 28.2143 12.375 27.8646 12.375 27.4999C12.375 27.1352 12.2301 26.7855 11.9723 26.5276C11.7144 26.2698 11.3647 26.1249 11 26.1249H4.22262C4.55628 23.8353 5.70231 21.742 7.45147 20.2274C9.20062 18.7128 11.4362 17.8778 13.75 17.8749C15.369 17.8889 16.942 17.3361 18.1962 16.3122C19.4504 15.2883 20.3068 13.8578 20.6171 12.2687C20.9274 10.6796 20.6719 9.03208 19.895 7.61158C19.118 6.19108 17.8686 5.08716 16.3632 4.49115C14.8578 3.89515 13.1913 3.84461 11.6526 4.34829C10.1138 4.85198 8.79977 5.87815 7.93818 7.24896C7.07659 8.61977 6.72175 10.2488 6.93516 11.8538C7.14856 13.4588 7.91676 14.9385 9.10662 16.0365C6.82441 16.9623 4.86993 18.5474 3.49278 20.5892C2.11564 22.6311 1.37832 25.037 1.375 27.4999C1.375 27.8646 1.51987 28.2143 1.77773 28.4722C2.03559 28.73 2.38533 28.8749 2.75 28.8749ZM13.75 6.87489C14.5658 6.87489 15.3634 7.11682 16.0417 7.57008C16.7201 8.02334 17.2488 8.66758 17.561 9.42132C17.8732 10.1751 17.9549 11.0045 17.7957 11.8046C17.6366 12.6048 17.2437 13.3398 16.6668 13.9167C16.0899 14.4936 15.3549 14.8865 14.5547 15.0456C13.7546 15.2048 12.9252 15.1231 12.1714 14.8109C11.4177 14.4987 10.7734 13.97 10.3202 13.2916C9.86693 12.6133 9.625 11.8157 9.625 10.9999C9.625 9.90587 10.0596 8.85666 10.8332 8.08308C11.6068 7.30949 12.656 6.87489 13.75 6.87489ZM27.7846 12.7778C27.5268 12.52 27.1771 12.3752 26.8125 12.3752C26.4479 12.3752 26.0982 12.52 25.8404 12.7778L17.2466 21.3715C17.0964 21.5229 16.983 21.7069 16.9152 21.9091L15.1965 27.0654C15.1277 27.272 15.1089 27.492 15.1418 27.7072C15.1746 27.9225 15.2581 28.1269 15.3854 28.3036C15.5127 28.4803 15.6801 28.6242 15.8739 28.7235C16.0676 28.8228 16.2822 28.8747 16.5 28.8749C16.6476 28.8747 16.7943 28.851 16.9345 28.8048L22.0907 27.086C22.2934 27.0184 22.4774 26.9044 22.6284 26.7533L31.2221 18.1595C31.4799 17.9017 31.6247 17.552 31.6247 17.1874C31.6247 16.8228 31.4799 16.4731 31.2221 16.2153L27.7846 12.7778ZM20.9096 24.5794L18.6697 25.326L19.4164 23.0861L26.8125 15.6941L28.3057 17.1874L20.9096 24.5794Z" fill="#D3F36B"/>
</g>
</svg>
