<svg width="9" height="15" viewBox="0 0 9 15" fill="none" xmlns="http://www.w3.org/2000/svg">
<g id="right-arrow">
<g id="Group 1584">
<path id="Path 1953" d="M0.38192 8.07805L6.98192 14.678C7.13427 14.8297 7.34047 14.9148 7.55542 14.9148C7.77037 14.9148 7.97656 14.8297 8.12891 14.678L8.61491 14.192C8.76678 14.0398 8.85207 13.8336 8.85207 13.6185C8.85207 13.4035 8.76678 13.1973 8.61491 13.045L3.07592 7.50605L8.62092 1.96105C8.77254 1.80869 8.85767 1.60249 8.85767 1.38755C8.85767 1.1726 8.77254 0.9664 8.62092 0.814047L8.13492 0.328047C7.98256 0.176421 7.77636 0.0912991 7.56142 0.0912991C7.34647 0.0912991 7.14027 0.176421 6.98792 0.328047L0.387917 6.92805C0.236286 7.08121 0.15123 7.28802 0.15123 7.50355C0.15123 7.71907 0.236286 7.92589 0.387917 8.07905L0.38192 8.07805Z" fill="#D3F36B"/>
</g>
</g>
</svg>
