<svg width="41" height="41" viewBox="0 0 41 41" fill="none" xmlns="http://www.w3.org/2000/svg">
<g id="Iconly/Light-Outline/Chat">
<g id="Chat">
<g id="Group 3">
<mask id="mask0_811_678" style="mask-type:luminance" maskUnits="userSpaceOnUse" x="2" y="2" width="36" height="36">
<path id="Clip 2" fill-rule="evenodd" clip-rule="evenodd" d="M2.396 2.39636H37.7699V37.7716H2.396V2.39636Z" fill="white"/>
</mask>
<g mask="url(#mask0_811_678)">
<path id="Fill 1" fill-rule="evenodd" clip-rule="evenodd" d="M10.8036 33.1323C11.7582 33.1323 12.6585 33.4944 13.6114 33.8779C19.4492 36.577 26.3535 35.3492 30.8515 30.8528C36.7864 24.9147 36.7864 15.2553 30.8515 9.32038C27.9779 6.44676 24.1563 4.86511 20.0878 4.86511C16.0176 4.86511 12.1944 6.4484 9.32238 9.32203C4.82267 13.8184 3.59817 20.7227 6.27265 26.5045C6.65778 27.4575 7.02974 28.3857 7.02974 29.3502C7.02974 30.313 6.69892 31.2824 6.40761 32.1382C6.16732 32.8426 5.80359 33.9058 6.0373 34.1395C6.26607 34.3765 7.33586 34.0029 8.04192 33.761C8.88953 33.4713 9.85069 33.1389 10.8036 33.1323V33.1323ZM20.0466 37.7719C17.5318 37.7719 15.0005 37.2403 12.6322 36.1442C11.9343 35.8644 11.2809 35.601 10.8119 35.601C10.272 35.6043 9.54622 35.8545 8.84509 36.0964C7.40663 36.5902 5.61597 37.2057 4.29107 35.8858C2.97111 34.5642 3.58007 32.7784 4.07053 31.3416C4.31247 30.6339 4.56099 29.9032 4.56099 29.3502C4.56099 28.8959 4.34209 28.3166 4.00634 27.4822C0.923695 20.8248 2.34899 12.8013 7.5778 7.5758C10.9155 4.2364 15.3577 2.39636 20.0861 2.39636C24.8146 2.39636 29.2584 4.23476 32.5961 7.57415C39.4954 14.4735 39.4954 25.6981 32.5961 32.5974C29.2139 35.9812 24.6599 37.7719 20.0466 37.7719V37.7719Z" fill="black"/>
</g>
</g>
<path id="Fill 4" fill-rule="evenodd" clip-rule="evenodd" d="M26.5836 22.4141C25.6751 22.4141 24.9312 21.6784 24.9312 20.7683C24.9312 19.8581 25.6603 19.1224 26.5688 19.1224H26.5836C27.4921 19.1224 28.2294 19.8581 28.2294 20.7683C28.2294 21.6784 27.4921 22.4141 26.5836 22.4141" fill="black"/>
<path id="Fill 6" fill-rule="evenodd" clip-rule="evenodd" d="M19.9859 22.4141C19.0774 22.4141 18.3335 21.6784 18.3335 20.7683C18.3335 19.8581 19.061 19.1224 19.9711 19.1224H19.9859C20.8944 19.1224 21.6317 19.8581 21.6317 20.7683C21.6317 21.6784 20.8944 22.4141 19.9859 22.4141" fill="black"/>
<path id="Fill 8" fill-rule="evenodd" clip-rule="evenodd" d="M13.3873 22.4141C12.4788 22.4141 11.7349 21.6784 11.7349 20.7683C11.7349 19.8581 12.464 19.1224 13.3725 19.1224H13.3873C14.2958 19.1224 15.0331 19.8581 15.0331 20.7683C15.0331 21.6784 14.2958 22.4141 13.3873 22.4141" fill="black"/>
</g>
</g>
</svg>
