<svg width="50" height="50" viewBox="0 0 50 50" fill="none" xmlns="http://www.w3.org/2000/svg">
<g id="woman-svgrepo-com 2" clip-path="url(#clip0_899_1340)">
<g id="Group">
<g id="Group_2">
<path id="Vector" d="M46.3661 39.7269C44.7145 33.8008 36.4205 34.4582 32.8412 32.7564C29.2619 31.0545 29.8203 25.3445 29.3669 24.3511H20.6335C20.18 25.3445 20.7393 31.0553 17.1592 32.7564C13.5799 34.4582 5.2859 33.801 3.63429 39.7269C2.72294 42.9956 2.76705 43.9944 2.51465 47.6161C2.51465 47.6161 13.8948 50 24.7429 50C35.5911 50 47.4856 47.6161 47.4856 47.6161C47.2341 43.9944 47.2774 42.9956 46.3661 39.7269Z" fill="#E8C59E"/>
<path id="Vector_2" d="M28.2164 34.0612C31.7957 35.7631 40.0897 35.1058 41.7413 41.0318C42.6095 44.1445 42.6112 45.1996 42.8264 48.4207C45.6762 47.9787 47.4855 47.6161 47.4855 47.6161C47.2341 43.9954 47.2774 42.9958 46.3659 39.7269C44.7143 33.8008 36.4203 34.4582 32.8409 32.7564C29.2616 31.0545 29.8201 25.3445 29.3666 24.3511H24.743C24.743 24.3511 24.6363 32.3603 28.2164 34.0612Z" fill="#DDB58E"/>
<g id="Group_3">
<path id="Vector_3" d="M40.1576 46.5759C40.1321 45.3999 39.391 44.702 38.2653 44.3552C38.3896 40.1689 39.1607 36.4105 39.6301 34.4687C38.5545 34.1926 37.4606 33.9825 36.4328 33.7717C35.9272 35.8644 35.1482 39.7384 35.0071 44.132C33.6634 44.2494 32.227 44.5616 30.9231 44.9817C27.6023 46.0527 22.375 46.0527 19.0542 44.9817C17.7503 44.5609 16.3139 44.2494 14.9702 44.132C14.8282 39.7225 14.0491 35.8636 13.5445 33.7761C12.5176 33.9861 11.4253 34.197 10.3516 34.4731C10.8202 36.4088 11.5868 40.1531 11.7121 44.3552C10.5863 44.702 9.84525 45.4006 9.81966 46.5759C9.80553 47.2375 9.76943 48.1198 9.72266 48.8308C13.9036 49.4193 19.3878 49.9998 24.743 49.9998C30.1962 49.9998 35.914 49.3972 40.2521 48.7982C40.2069 48.0925 40.1716 47.227 40.1576 46.5759Z" fill="#F4E9D7"/>
<path id="Vector_4" d="M35.9414 36.0338C37.045 36.3682 38.1021 36.7953 39.0169 37.3908C39.2303 36.2051 39.4518 35.2055 39.63 34.4679C38.5544 34.1918 37.4605 33.9818 36.4327 33.771C36.2845 34.3832 36.1134 35.1481 35.9414 36.0338Z" fill="#EDE2D1"/>
<g id="Group_4">
<g id="Group_5">
<path id="Vector_5" d="M14.1195 47.7994C13.9175 47.7933 13.7684 47.615 13.6475 47.4517C13.637 47.6749 13.4923 47.9766 13.262 48.0322C13.0415 48.086 12.7389 48.0436 12.6648 47.7922C12.6392 47.7049 12.6207 47.6228 12.6436 47.5319C12.655 47.4842 12.7238 47.3078 12.775 47.3007C12.5703 47.329 12.3541 47.2284 12.243 47.0546C12.1319 46.8808 12.1327 46.6418 12.2447 46.4678C12.3568 46.2939 12.5737 46.1952 12.7784 46.2252C12.602 46.0593 12.5747 45.7576 12.7202 45.5643C12.8649 45.3702 13.1622 45.3102 13.3703 45.433C13.5785 45.5556 13.672 45.8433 13.5741 46.0646C13.6367 45.9076 13.7593 45.7726 13.9155 45.7073C14.0717 45.642 14.2596 45.6518 14.4026 45.7427C14.5455 45.8335 14.6345 46.0073 14.6134 46.1749C14.5834 46.4132 14.3611 46.5782 14.1404 46.6716C14.2393 46.6292 14.4343 46.7607 14.5013 46.826C14.8069 47.1219 14.5669 47.8127 14.1195 47.7994Z" fill="#E0605C"/>
</g>
<g id="Group_6">
<path id="Vector_6" d="M13.1013 46.3984C13.1869 46.3226 13.2963 46.2722 13.4101 46.267C13.5239 46.2617 13.6413 46.305 13.7181 46.3888C13.8001 46.4797 13.8292 46.6086 13.8213 46.7312C13.8108 46.8803 13.7455 47.0277 13.6317 47.1247C13.5179 47.2217 13.3547 47.2624 13.2118 47.2165C13.053 47.1654 12.9375 47.0101 12.9199 46.8442C12.901 46.6789 12.9761 46.5086 13.1013 46.3984Z" fill="#F2AC2F"/>
</g>
</g>
<g id="Group_7">
<path id="Vector_7" d="M19.7332 48.8582C19.7544 48.6906 19.6653 48.5168 19.5224 48.4259C19.3794 48.335 19.1915 48.3253 19.0354 48.3906C18.8792 48.4559 18.7566 48.5909 18.694 48.7478C18.7919 48.5264 18.6993 48.2379 18.4902 48.1162C18.2811 47.9936 17.9846 48.0536 17.8401 48.2476C17.6955 48.4416 17.7219 48.7434 17.8983 48.9084C17.6936 48.8794 17.4765 48.9781 17.3646 49.1511C17.2649 49.3063 17.2535 49.5127 17.331 49.6796C18.1286 49.744 18.9393 49.8005 19.7572 49.8482C19.7538 49.7193 19.7114 49.5967 19.6205 49.5085C19.5535 49.4432 19.3586 49.3118 19.2597 49.3541C19.481 49.2614 19.7033 49.0955 19.7332 48.8582Z" fill="#E0605C"/>
<path id="Vector_8" d="M18.941 49.415C18.9498 49.2932 18.9198 49.1636 18.8377 49.0727C18.7609 48.9879 18.6435 48.9457 18.5297 48.9509C18.4159 48.9562 18.3065 49.0064 18.221 49.0822C18.0957 49.1926 18.0216 49.3627 18.0392 49.5287C18.0472 49.6054 18.0762 49.6787 18.1203 49.7421C18.3374 49.758 18.5544 49.7731 18.7732 49.788C18.873 49.6911 18.9312 49.5544 18.941 49.415Z" fill="#F2AC2F"/>
</g>
<g id="Group_8">
<g id="Group_9">
<path id="Vector_9" d="M22.4302 47.1889C22.312 47.2357 22.1814 47.1687 22.071 47.1042C22.1205 47.2356 22.1107 47.4456 21.9916 47.5355C21.8768 47.6211 21.6916 47.6715 21.5866 47.5443C21.5496 47.5002 21.5196 47.457 21.5099 47.3996C21.5045 47.3696 21.5011 47.2505 21.5284 47.2337C21.4173 47.3007 21.2672 47.2963 21.1597 47.2232C21.052 47.15 20.9938 47.0114 21.0159 46.8835C21.038 46.7555 21.1394 46.6444 21.2647 46.6108C21.1217 46.5587 21.0317 46.3911 21.0671 46.2429C21.1032 46.0947 21.2593 45.987 21.4102 46.0056C21.561 46.025 21.6863 46.1679 21.6846 46.3206C21.6819 46.2139 21.7189 46.1054 21.793 46.0294C21.8671 45.9527 21.9782 45.912 22.0833 45.9288C22.1883 45.9464 22.2826 46.0241 22.3126 46.1264C22.354 46.2711 22.2668 46.422 22.1625 46.5305C22.2093 46.482 22.354 46.5093 22.4096 46.5305C22.6604 46.6268 22.6923 47.0866 22.4302 47.1889Z" fill="#E0605C"/>
</g>
<g id="Group_10">
<path id="Vector_10" d="M21.4952 46.6314C21.5262 46.567 21.5764 46.5105 21.6417 46.4788C21.706 46.4479 21.7847 46.4435 21.8498 46.4734C21.9195 46.5051 21.969 46.5731 21.9936 46.6455C22.0245 46.7346 22.0236 46.836 21.9812 46.9199C21.9398 47.0037 21.855 47.068 21.7615 47.0768C21.6574 47.0866 21.5514 47.0257 21.5003 46.9338C21.4485 46.8422 21.4502 46.7257 21.4952 46.6314Z" fill="#F2AC2F"/>
</g>
</g>
<g id="Group_11">
<path id="Vector_11" d="M26.1883 48.0844C26.4848 48.1833 26.857 47.9467 27.0246 47.7042C27.0458 47.9706 27.0872 48.2732 27.3095 48.4216C27.8 48.7488 28.5508 48.1445 28.4158 47.5994C28.3858 47.4794 28.2596 47.1971 28.1202 47.1749C28.4326 47.2244 28.796 47.1944 28.9955 46.9491C29.1358 46.7761 29.1578 46.5194 29.0617 46.3182C28.9655 46.117 28.7618 45.9751 28.542 45.9398C28.3222 45.9044 28.0902 45.9688 27.9111 46.1013C28.0832 45.9848 28.1838 45.7811 28.1926 45.5754C27.7727 45.6319 27.3429 45.6778 26.9062 45.7114C26.9072 45.7167 26.908 45.7219 26.9097 45.7264C26.9036 45.7211 26.8973 45.7167 26.8912 45.7123C26.5788 45.7362 26.263 45.7538 25.9462 45.7662C25.8122 45.9011 25.7301 46.089 25.7318 46.2796C25.7345 46.5513 25.9065 46.8152 26.1553 46.9263C26.0936 46.899 25.8933 47.0489 25.8473 47.093C25.7582 47.1785 25.7221 47.2826 25.6904 47.3991C25.5954 47.7323 25.9042 47.9899 26.1883 48.0844Z" fill="#E0605C"/>
<g id="Group_12">
<path id="Vector_12" d="M27.148 46.1461C27.2961 46.1215 27.454 46.1408 27.5846 46.2149C27.7152 46.289 27.8166 46.4186 27.8432 46.566C27.8722 46.7249 27.8141 46.8898 27.7196 47.0204C27.6041 47.1801 27.4277 47.2992 27.2326 47.3284C27.0376 47.3574 26.8268 47.2887 26.6997 47.1388C26.5576 46.9711 26.5364 46.7162 26.6326 46.5186C26.7289 46.3208 26.9309 46.1824 27.148 46.1461Z" fill="#F2AC2F"/>
</g>
</g>
<g id="Group_13">
<g id="Group_14">
<path id="Vector_13" d="M31.7471 48.4999C31.7886 48.4081 31.8997 48.3737 31.9986 48.349C31.898 48.3013 31.7869 48.177 31.8054 48.0596C31.823 47.9475 31.9007 47.8161 32.0313 47.8303C32.0771 47.8356 32.1177 47.8427 32.1557 47.87C32.1752 47.885 32.2439 47.9502 32.2369 47.975C32.2634 47.8753 32.3507 47.7942 32.453 47.7764C32.5544 47.7588 32.6648 47.8047 32.723 47.8902C32.7812 47.975 32.7856 48.0949 32.7327 48.1831C32.8431 48.1337 32.9877 48.1787 33.0486 48.2837C33.1095 48.3888 33.0812 48.536 32.9842 48.6093C32.8872 48.6826 32.7371 48.6693 32.6533 48.582C32.7142 48.6412 32.7522 48.724 32.753 48.8079C32.753 48.8926 32.7123 48.9772 32.6436 49.0257C32.5739 49.0742 32.4769 49.0822 32.4036 49.0399C32.2995 48.9807 32.2659 48.8457 32.2651 48.7258C32.2651 48.7796 32.1672 48.844 32.1248 48.8625C31.9272 48.9472 31.6545 48.7036 31.7471 48.4999Z" fill="#E0605C"/>
</g>
<g id="Group_15">
<path id="Vector_14" d="M32.5889 48.2997C32.6074 48.3535 32.6092 48.4135 32.5899 48.4673C32.5704 48.5212 32.5282 48.567 32.4743 48.5855C32.417 48.6058 32.3517 48.5943 32.297 48.567C32.2299 48.5334 32.1744 48.4752 32.1522 48.4037C32.1293 48.3323 32.1417 48.2493 32.1902 48.1929C32.2441 48.1294 32.3384 48.1057 32.4178 48.1294C32.498 48.1542 32.5626 48.2212 32.5889 48.2997Z" fill="#F2AC2F"/>
</g>
</g>
<g id="Group_16">
<path id="Vector_15" d="M37.2126 45.4966C37.1614 45.5037 37.0934 45.6801 37.0812 45.7278C37.0583 45.8187 37.0768 45.8999 37.1024 45.9881C37.1765 46.2396 37.4791 46.2819 37.6996 46.2281C37.9299 46.1725 38.0754 45.8708 38.0851 45.6476C38.206 45.8109 38.3542 45.989 38.5571 45.9953C39.0045 46.0094 39.2453 45.3186 38.9383 45.0213C38.8712 44.956 38.6763 44.8247 38.5774 44.8669C38.7071 44.8113 38.8376 44.731 38.9295 44.6261C38.7275 44.5184 38.505 44.4285 38.2642 44.3544C38.2686 44.2159 38.273 44.0783 38.2784 43.9406C38.1575 44.013 38.0622 44.1285 38.0101 44.2601C38.1081 44.0386 38.0155 43.7501 37.8064 43.6284C37.5973 43.5058 37.3008 43.5658 37.1562 43.7598C37.0115 43.954 37.038 44.2557 37.2144 44.4206C37.0098 44.3916 36.7927 44.4903 36.6808 44.6633C36.5687 44.8363 36.5679 45.0753 36.679 45.25C36.7908 45.4244 37.0079 45.5249 37.2126 45.4966Z" fill="#E0605C"/>
<g id="Group_17">
<path id="Vector_16" d="M37.5391 44.5942C37.6247 44.5184 37.7341 44.468 37.8479 44.4628C37.9617 44.4575 38.0791 44.5008 38.1559 44.5846C38.2379 44.6755 38.267 44.8044 38.2591 44.927C38.2486 45.0761 38.1833 45.2235 38.0695 45.3205C37.9557 45.4175 37.7925 45.4582 37.6496 45.4123C37.4908 45.3612 37.3753 45.2059 37.3577 45.04C37.3396 44.8747 37.4137 44.7044 37.5391 44.5942Z" fill="#F2AC2F"/>
</g>
</g>
<g id="Group_18">
<path id="Vector_17" d="M38.8394 48.4657C38.6964 48.3748 38.5085 48.3651 38.3523 48.4304C38.1962 48.4957 38.0736 48.6307 38.0109 48.7876C38.1089 48.5662 38.0163 48.2776 37.8072 48.156C37.5981 48.0334 37.3016 48.0934 37.157 48.2874C37.0125 48.4814 37.0388 48.7832 37.2153 48.9482C37.0106 48.9192 36.7935 49.0179 36.6816 49.1909C36.6692 49.2103 36.6587 49.2297 36.6489 49.2501C37.4738 49.1565 38.2723 49.0586 39.0372 48.9589C39.0425 48.9386 39.0477 48.9174 39.0504 48.8963C39.0716 48.7303 38.9824 48.5566 38.8394 48.4657Z" fill="#E0605C"/>
<path id="Vector_18" d="M38.1171 49.0781C38.043 49.0181 37.9441 48.9872 37.848 48.9916C37.7342 48.997 37.6248 49.0472 37.5393 49.123C37.5287 49.1327 37.519 49.1425 37.5093 49.152C37.7138 49.1274 37.9168 49.1028 38.1171 49.0781Z" fill="#F2AC2F"/>
</g>
<g id="Group_19">
<path id="Vector_19" d="M11.3722 40.0683C11.5327 39.9316 11.6297 39.6882 11.6385 39.494C11.777 39.6811 11.9482 39.8866 12.1812 39.8936C12.6956 39.9095 12.9726 39.1146 12.6196 38.774C12.5419 38.6989 12.3179 38.5481 12.2041 38.5966C12.4582 38.4889 12.7141 38.2984 12.7475 38.0249C12.7714 37.8317 12.669 37.6324 12.5048 37.5273C12.3408 37.4233 12.1247 37.4118 11.9446 37.4867C11.7646 37.5616 11.6235 37.717 11.552 37.8978C11.6649 37.6429 11.5582 37.312 11.3183 37.1709C11.1965 37.0995 11.0493 37.0827 10.9116 37.1109C11.0757 37.9959 11.2362 38.992 11.3722 40.0683Z" fill="#E0605C"/>
<path id="Vector_20" d="M11.2616 39.2452C11.3895 39.2487 11.5201 39.2021 11.6189 39.1182C11.7503 39.0071 11.8253 38.8368 11.8367 38.6657C11.8465 38.5254 11.8129 38.3763 11.7185 38.2722C11.6303 38.1752 11.4953 38.1257 11.3647 38.1319C11.2729 38.1362 11.183 38.1662 11.1045 38.2139C11.1575 38.5464 11.2104 38.8905 11.2616 39.2452Z" fill="#F2AC2F"/>
</g>
<g id="Group_20">
<path id="Vector_21" d="M14.3668 42.7557C14.3324 42.7601 14.2856 42.8802 14.2776 42.9119C14.2625 42.9736 14.2749 43.0283 14.2917 43.0874C14.342 43.2577 14.5467 43.2859 14.6958 43.2497C14.7991 43.225 14.8766 43.1271 14.919 43.0194C14.8899 42.5103 14.8537 42.011 14.8105 41.5222C14.7973 41.5108 14.7832 41.5001 14.7681 41.4913C14.627 41.4084 14.4258 41.4489 14.3278 41.5805C14.2299 41.7118 14.2476 41.9158 14.3676 42.0278C14.2291 42.0076 14.0827 42.0746 14.0067 42.1919C13.9309 42.3093 13.9309 42.4706 14.0057 42.588C14.0819 42.7072 14.2291 42.7751 14.3668 42.7557Z" fill="#E0605C"/>
<path id="Vector_22" d="M14.6624 42.6991C14.7409 42.7238 14.8283 42.7106 14.8988 42.6692C14.8856 42.4645 14.8715 42.2615 14.8556 42.0604C14.8362 42.057 14.8159 42.056 14.7957 42.057C14.7189 42.0604 14.6448 42.095 14.5866 42.1452C14.5018 42.2202 14.4516 42.3348 14.463 42.4469C14.4762 42.5598 14.5547 42.6648 14.6624 42.6991Z" fill="#F2AC2F"/>
</g>
<g id="Group_21">
<path id="Vector_23" d="M35.6722 38.7829C35.9024 38.7273 36.0479 38.4256 36.0577 38.2024C36.1785 38.3657 36.3267 38.5438 36.5297 38.5501C36.977 38.5642 37.2178 37.8734 36.9108 37.5761C36.8438 37.5108 36.6488 37.3794 36.5499 37.4217C36.7705 37.3281 36.9929 37.1624 37.0229 36.925C37.0441 36.7574 36.9549 36.5836 36.8121 36.4927C36.6692 36.4019 36.4812 36.3921 36.325 36.4574C36.1688 36.5227 36.0462 36.6577 35.9836 36.8147C36.0613 36.639 36.0189 36.4221 35.8944 36.2783C35.7497 37.0423 35.6059 37.8893 35.4771 38.8016C35.5434 38.8049 35.6113 38.7978 35.6722 38.7829Z" fill="#E0605C"/>
<path id="Vector_24" d="M35.6212 37.9675C35.7633 38.0133 35.9273 37.9728 36.0411 37.8757C36.1549 37.7785 36.2202 37.6313 36.2307 37.4822C36.2395 37.3603 36.2095 37.2307 36.1274 37.1398C36.0507 37.055 35.9333 37.0128 35.8195 37.018C35.7983 37.0189 35.778 37.0215 35.7578 37.026C35.7049 37.3277 35.6528 37.6391 35.6025 37.9612C35.609 37.9631 35.6151 37.9658 35.6212 37.9675Z" fill="#F2AC2F"/>
</g>
<g id="Group_22">
<path id="Vector_25" d="M35.0862 43.2506C35.3464 43.2586 35.4867 42.8563 35.3084 42.6842C35.2697 42.6462 35.1559 42.5695 35.0984 42.5943C35.2273 42.5397 35.356 42.4434 35.3737 42.3048C35.3861 42.2069 35.334 42.1063 35.2511 42.0534C35.2132 42.0287 35.169 42.0154 35.1242 42.011C35.0924 42.416 35.0659 42.828 35.0439 43.2452C35.0571 43.248 35.0713 43.2506 35.0862 43.2506Z" fill="#E0605C"/>
</g>
<g id="Group_23">
<path id="Vector_26" d="M38.1365 40.3613C38.1118 40.3647 38.0783 40.4512 38.0721 40.4741C38.0607 40.5183 38.0704 40.558 38.0827 40.6011C38.1188 40.7237 38.2661 40.7441 38.3738 40.7185C38.4682 40.6956 38.5335 40.5879 38.5547 40.4892C38.59 40.1856 38.628 39.8883 38.6675 39.5973C38.6032 39.6317 38.5528 39.6917 38.5255 39.7596C38.5732 39.6519 38.5281 39.5108 38.4266 39.4517C38.3252 39.3917 38.1804 39.4217 38.109 39.516C38.0384 39.6103 38.0517 39.7577 38.1373 39.8381C38.0376 39.824 37.9316 39.8717 37.877 39.9563C37.8224 40.0411 37.8224 40.1575 37.8761 40.2421C37.9309 40.326 38.0368 40.3754 38.1365 40.3613Z" fill="#E0605C"/>
<path id="Vector_27" d="M38.349 40.3205C38.4187 40.3427 38.4981 40.3232 38.5537 40.2755C38.5651 40.2658 38.5749 40.2552 38.5837 40.2446C38.5961 40.1466 38.6083 40.0487 38.6207 39.9526C38.6136 39.9402 38.6056 39.928 38.5961 39.9173C38.559 39.8759 38.5017 39.8556 38.4461 39.8581C38.3906 39.8608 38.3377 39.8854 38.2953 39.9217C38.2344 39.9755 38.1983 40.0584 38.2061 40.1396C38.2159 40.2201 38.2722 40.2959 38.349 40.3205Z" fill="#F2AC2F"/>
</g>
</g>
<path id="Vector_28" d="M19.459 30.2524C20.9076 31.5017 22.6068 32.7403 24.9907 33.0985C27.3824 32.7394 29.0754 31.4752 30.5267 30.2207C29.3198 27.8704 29.6931 25.0674 29.3666 24.3501H20.6333C20.306 25.0682 20.6712 27.9012 19.459 30.2524Z" fill="#CCA281"/>
<g id="Group_24">
<path id="Vector_29" d="M33.3885 18.2194C33.0603 20.0441 33.5986 21.668 34.5908 21.8464C35.583 22.0248 36.6534 20.6903 36.9815 18.8656C37.3097 17.041 36.7713 15.4171 35.7792 15.2387C34.787 15.0602 33.7166 16.3948 33.3885 18.2194Z" fill="#DDB58E"/>
<path id="Vector_30" d="M14.1943 15.24C13.2021 15.4185 12.6638 17.0423 12.992 18.867C13.3201 20.6917 14.3905 22.0262 15.3827 21.8477C16.3749 21.6693 16.9132 20.0455 16.585 18.2208C16.2569 16.3961 15.1865 15.0616 14.1943 15.24Z" fill="#E8C59E"/>
<path id="Vector_31" d="M32.7333 8.67871C32.7333 8.67871 30.7756 9.22574 26.2576 9.25211C23.3312 9.26891 20.9641 9.58645 18.2451 10.969C15.7492 12.2386 14.6261 14.0949 14.6014 14.7962C14.358 21.7272 15.773 31.222 24.9881 32.6088C34.0321 31.2484 35.568 22.1321 35.3935 15.2426C35.2822 10.8535 32.7333 8.67871 32.7333 8.67871Z" fill="#E8C59E"/>
<path id="Vector_32" d="M35.3931 15.2435C35.282 10.8543 32.7322 8.67871 32.7322 8.67871C32.7322 8.67871 32.6096 8.75013 32.3545 8.85781C32.9413 17.5224 33.5208 22.3827 30.2151 27.6542C27.4492 32.0654 24.9868 32.6088 24.9868 32.6088C34.0319 31.2485 35.5678 22.1322 35.3931 15.2435Z" fill="#DDB58E"/>
<path id="Vector_33" d="M14.4478 19.1607H15.5541C15.6484 15.8523 17.7605 14.2863 19.9458 13.6783C23.6831 12.6381 24.86 10.7493 24.9887 10.4979C25.1167 10.7493 26.2936 12.6373 30.0316 13.6783C32.2169 14.2863 34.3281 15.8522 34.4234 19.1607H35.5297V6.22412H14.4478V19.1607Z" fill="#DDB58E"/>
<path id="Vector_34" d="M39.4712 15.5974C39.046 9.59713 37.1985 0 24.9881 0C12.7778 0 10.9303 9.59713 10.5051 15.5974C9.88053 24.4128 10.9922 30.2049 12.1514 31.8149C13.8524 34.1776 16.4515 35.44 18.4806 34.8516C20.5097 34.2631 20.2443 32.0459 22.5363 31.1126C19.1564 29.7724 16.4549 25.0921 15.6918 20.493C14.9286 15.8939 17.3875 13.8699 19.9461 13.1571C23.6833 12.1169 24.8602 9.99959 24.9889 9.74813C25.1169 9.99959 26.2938 12.1161 30.0318 13.1571C32.5904 13.8691 35.0491 15.8939 34.2861 20.493C33.5231 25.0921 30.8215 29.7726 27.4415 31.1126C29.7336 32.0461 29.4689 34.2631 31.4973 34.8516C33.5264 35.44 36.1256 34.1776 37.8265 31.8149C38.9841 30.2039 40.0958 24.4128 39.4712 15.5974Z" fill="#2F3233"/>
</g>
</g>
</g>
</g>
<defs>
<clipPath id="clip0_899_1340">
<rect width="50" height="50" fill="white"/>
</clipPath>
</defs>
</svg>
