<svg width="29" height="29" viewBox="0 0 29 29" fill="none" xmlns="http://www.w3.org/2000/svg">
<g id="Group 36">
<g id="house-black-silhouette-without-door">
<path id="Path 74" d="M28.5922 14.28C28.713 14.1444 28.8062 13.9853 28.8664 13.8119C28.9267 13.6385 28.9526 13.4544 28.9428 13.2705C28.933 13.0865 28.8876 12.9065 28.8092 12.741C28.7309 12.5755 28.6213 12.4279 28.4868 12.3069L15.9698 0.996972C15.684 0.748869 15.3216 0.61485 14.9482 0.619245C14.5749 0.623641 14.2155 0.766159 13.9353 1.02093L1.38035 12.9091C1.2484 13.0327 1.1419 13.1825 1.06719 13.3495C0.992481 13.5166 0.951089 13.6974 0.945482 13.8813C0.939875 14.0652 0.970168 14.2484 1.03456 14.42C1.09894 14.5916 1.19611 14.748 1.32026 14.8799L1.63651 15.2186C1.872 15.4883 2.19889 15.6543 2.54953 15.682C2.90017 15.7098 3.24772 15.5973 3.52028 15.3677L4.45847 14.4966V27.2036C4.45847 27.579 4.60285 27.9391 4.85985 28.2045C5.11685 28.47 5.46542 28.6191 5.82887 28.6191H10.717C10.8969 28.6191 11.0751 28.5825 11.2414 28.5114C11.4077 28.4403 11.5587 28.336 11.686 28.2045C11.8132 28.0731 11.9142 27.9171 11.9831 27.7453C12.0519 27.5736 12.0874 27.3895 12.0874 27.2036V18.3164H18.3301V27.2058C18.3202 27.3856 18.3457 27.5656 18.4051 27.7349C18.4645 27.9042 18.5564 28.0593 18.6754 28.1909C18.7945 28.3225 18.938 28.4278 19.0975 28.5004C19.257 28.5731 19.4291 28.6116 19.6035 28.6137H24.7899C24.9699 28.6137 25.1481 28.5771 25.3143 28.5059C25.4806 28.4348 25.6317 28.3305 25.7589 28.1991C25.8862 28.0677 25.9871 27.9116 26.056 27.7399C26.1248 27.5681 26.1603 27.3841 26.1603 27.1982V14.6763L26.739 15.2011C27.0553 15.4908 27.7289 15.2588 28.2359 14.6817L28.5922 14.28Z" fill="#D3F36B"/>
</g>
</g>
</svg>
