<svg width="40" height="33" viewBox="0 0 40 33" fill="none" xmlns="http://www.w3.org/2000/svg">
<g id="bulleted-list-svgrepo-com 1">
<g id="Vector">
<path d="M9.91667 9.625C9.91667 10.2124 9.30209 10.8437 8.33333 10.8437C7.36458 10.8437 6.75 10.2124 6.75 9.625C6.75 9.03759 7.36458 8.40625 8.33333 8.40625C9.30209 8.40625 9.91667 9.03759 9.91667 9.625ZM13.8333 9.625C13.8333 9.22744 14.2614 8.75 15 8.75H31.6667C32.4053 8.75 32.8333 9.22744 32.8333 9.625C32.8333 10.0226 32.4053 10.5 31.6667 10.5H15C14.2614 10.5 13.8333 10.0226 13.8333 9.625ZM13.8333 16.5C13.8333 16.1024 14.2614 15.625 15 15.625H31.6667C32.4053 15.625 32.8333 16.1024 32.8333 16.5C32.8333 16.8976 32.4053 17.375 31.6667 17.375H15C14.2614 17.375 13.8333 16.8976 13.8333 16.5ZM13.8333 23.375C13.8333 22.9774 14.2614 22.5 15 22.5H31.6667C32.4053 22.5 32.8333 22.9774 32.8333 23.375C32.8333 23.7726 32.4053 24.25 31.6667 24.25H15C14.2614 24.25 13.8333 23.7726 13.8333 23.375ZM9.91667 16.5C9.91667 17.0875 9.3021 17.7187 8.33333 17.7187C7.36457 17.7187 6.75 17.0875 6.75 16.5C6.75 15.9125 7.36457 15.2812 8.33333 15.2812C9.3021 15.2812 9.91667 15.9125 9.91667 16.5ZM9.91667 23.375C9.91667 23.9625 9.3021 24.5937 8.33333 24.5937C7.36457 24.5937 6.75 23.9625 6.75 23.375C6.75 22.7875 7.36457 22.1562 8.33333 22.1562C9.3021 22.1562 9.91667 22.7875 9.91667 23.375Z" fill="#D3F36B"/>
<path d="M9.91667 9.625C9.91667 10.2124 9.30209 10.8437 8.33333 10.8437C7.36458 10.8437 6.75 10.2124 6.75 9.625C6.75 9.03759 7.36458 8.40625 8.33333 8.40625C9.30209 8.40625 9.91667 9.03759 9.91667 9.625ZM13.8333 9.625C13.8333 9.22744 14.2614 8.75 15 8.75H31.6667C32.4053 8.75 32.8333 9.22744 32.8333 9.625C32.8333 10.0226 32.4053 10.5 31.6667 10.5H15C14.2614 10.5 13.8333 10.0226 13.8333 9.625ZM13.8333 16.5C13.8333 16.1024 14.2614 15.625 15 15.625H31.6667C32.4053 15.625 32.8333 16.1024 32.8333 16.5C32.8333 16.8976 32.4053 17.375 31.6667 17.375H15C14.2614 17.375 13.8333 16.8976 13.8333 16.5ZM13.8333 23.375C13.8333 22.9774 14.2614 22.5 15 22.5H31.6667C32.4053 22.5 32.8333 22.9774 32.8333 23.375C32.8333 23.7726 32.4053 24.25 31.6667 24.25H15C14.2614 24.25 13.8333 23.7726 13.8333 23.375ZM9.91667 16.5C9.91667 17.0875 9.3021 17.7187 8.33333 17.7187C7.36457 17.7187 6.75 17.0875 6.75 16.5C6.75 15.9125 7.36457 15.2812 8.33333 15.2812C9.3021 15.2812 9.91667 15.9125 9.91667 16.5ZM9.91667 23.375C9.91667 23.9625 9.3021 24.5937 8.33333 24.5937C7.36457 24.5937 6.75 23.9625 6.75 23.375C6.75 22.7875 7.36457 22.1562 8.33333 22.1562C9.3021 22.1562 9.91667 22.7875 9.91667 23.375Z" stroke="#D3F36B"/>
<path d="M9.91667 9.625C9.91667 10.2124 9.30209 10.8437 8.33333 10.8437C7.36458 10.8437 6.75 10.2124 6.75 9.625C6.75 9.03759 7.36458 8.40625 8.33333 8.40625C9.30209 8.40625 9.91667 9.03759 9.91667 9.625ZM13.8333 9.625C13.8333 9.22744 14.2614 8.75 15 8.75H31.6667C32.4053 8.75 32.8333 9.22744 32.8333 9.625C32.8333 10.0226 32.4053 10.5 31.6667 10.5H15C14.2614 10.5 13.8333 10.0226 13.8333 9.625ZM13.8333 16.5C13.8333 16.1024 14.2614 15.625 15 15.625H31.6667C32.4053 15.625 32.8333 16.1024 32.8333 16.5C32.8333 16.8976 32.4053 17.375 31.6667 17.375H15C14.2614 17.375 13.8333 16.8976 13.8333 16.5ZM13.8333 23.375C13.8333 22.9774 14.2614 22.5 15 22.5H31.6667C32.4053 22.5 32.8333 22.9774 32.8333 23.375C32.8333 23.7726 32.4053 24.25 31.6667 24.25H15C14.2614 24.25 13.8333 23.7726 13.8333 23.375ZM9.91667 16.5C9.91667 17.0875 9.3021 17.7187 8.33333 17.7187C7.36457 17.7187 6.75 17.0875 6.75 16.5C6.75 15.9125 7.36457 15.2812 8.33333 15.2812C9.3021 15.2812 9.91667 15.9125 9.91667 16.5ZM9.91667 23.375C9.91667 23.9625 9.3021 24.5937 8.33333 24.5937C7.36457 24.5937 6.75 23.9625 6.75 23.375C6.75 22.7875 7.36457 22.1562 8.33333 22.1562C9.3021 22.1562 9.91667 22.7875 9.91667 23.375Z" stroke="#D3F36B" stroke-opacity="0.2"/>
<path d="M9.91667 9.625C9.91667 10.2124 9.30209 10.8437 8.33333 10.8437C7.36458 10.8437 6.75 10.2124 6.75 9.625C6.75 9.03759 7.36458 8.40625 8.33333 8.40625C9.30209 8.40625 9.91667 9.03759 9.91667 9.625ZM13.8333 9.625C13.8333 9.22744 14.2614 8.75 15 8.75H31.6667C32.4053 8.75 32.8333 9.22744 32.8333 9.625C32.8333 10.0226 32.4053 10.5 31.6667 10.5H15C14.2614 10.5 13.8333 10.0226 13.8333 9.625ZM13.8333 16.5C13.8333 16.1024 14.2614 15.625 15 15.625H31.6667C32.4053 15.625 32.8333 16.1024 32.8333 16.5C32.8333 16.8976 32.4053 17.375 31.6667 17.375H15C14.2614 17.375 13.8333 16.8976 13.8333 16.5ZM13.8333 23.375C13.8333 22.9774 14.2614 22.5 15 22.5H31.6667C32.4053 22.5 32.8333 22.9774 32.8333 23.375C32.8333 23.7726 32.4053 24.25 31.6667 24.25H15C14.2614 24.25 13.8333 23.7726 13.8333 23.375ZM9.91667 16.5C9.91667 17.0875 9.3021 17.7187 8.33333 17.7187C7.36457 17.7187 6.75 17.0875 6.75 16.5C6.75 15.9125 7.36457 15.2812 8.33333 15.2812C9.3021 15.2812 9.91667 15.9125 9.91667 16.5ZM9.91667 23.375C9.91667 23.9625 9.3021 24.5937 8.33333 24.5937C7.36457 24.5937 6.75 23.9625 6.75 23.375C6.75 22.7875 7.36457 22.1562 8.33333 22.1562C9.3021 22.1562 9.91667 22.7875 9.91667 23.375Z" stroke="#D3F36B" stroke-opacity="0.2"/>
<path d="M9.91667 9.625C9.91667 10.2124 9.30209 10.8437 8.33333 10.8437C7.36458 10.8437 6.75 10.2124 6.75 9.625C6.75 9.03759 7.36458 8.40625 8.33333 8.40625C9.30209 8.40625 9.91667 9.03759 9.91667 9.625ZM13.8333 9.625C13.8333 9.22744 14.2614 8.75 15 8.75H31.6667C32.4053 8.75 32.8333 9.22744 32.8333 9.625C32.8333 10.0226 32.4053 10.5 31.6667 10.5H15C14.2614 10.5 13.8333 10.0226 13.8333 9.625ZM13.8333 16.5C13.8333 16.1024 14.2614 15.625 15 15.625H31.6667C32.4053 15.625 32.8333 16.1024 32.8333 16.5C32.8333 16.8976 32.4053 17.375 31.6667 17.375H15C14.2614 17.375 13.8333 16.8976 13.8333 16.5ZM13.8333 23.375C13.8333 22.9774 14.2614 22.5 15 22.5H31.6667C32.4053 22.5 32.8333 22.9774 32.8333 23.375C32.8333 23.7726 32.4053 24.25 31.6667 24.25H15C14.2614 24.25 13.8333 23.7726 13.8333 23.375ZM9.91667 16.5C9.91667 17.0875 9.3021 17.7187 8.33333 17.7187C7.36457 17.7187 6.75 17.0875 6.75 16.5C6.75 15.9125 7.36457 15.2812 8.33333 15.2812C9.3021 15.2812 9.91667 15.9125 9.91667 16.5ZM9.91667 23.375C9.91667 23.9625 9.3021 24.5937 8.33333 24.5937C7.36457 24.5937 6.75 23.9625 6.75 23.375C6.75 22.7875 7.36457 22.1562 8.33333 22.1562C9.3021 22.1562 9.91667 22.7875 9.91667 23.375Z" stroke="#D3F36B" stroke-opacity="0.2"/>
</g>
</g>
</svg>
