<svg width="42" height="43" viewBox="0 0 42 43" fill="none" xmlns="http://www.w3.org/2000/svg">
<g id="Group 1597">
<g id="Group" filter="url(#filter0_d_221_449)">
<path id="Rectangle 993" d="M31.001 3.00391H11.001C8.23955 3.00391 6.00098 5.24248 6.00098 8.00391V28.0039C6.00098 30.7653 8.23955 33.0039 11.001 33.0039H31.001C33.7624 33.0039 36.001 30.7653 36.001 28.0039V8.00391C36.001 5.24248 33.7624 3.00391 31.001 3.00391Z" fill="white"/>
</g>
<g id="placeholder">
<g id="Group 1585">
<path id="Path 1954" d="M20.9839 10.885C19.5894 10.8993 18.2575 11.466 17.2803 12.4608C16.303 13.4557 15.7602 14.7975 15.7709 16.192C15.7709 17.829 16.5989 19.815 18.2319 22.092C18.9675 23.1195 19.777 24.0921 20.6539 25.002C20.7402 25.0888 20.8571 25.1382 20.9795 25.1395C21.1018 25.1408 21.2198 25.0939 21.3079 25.009C22.1909 24.1292 23.0025 23.1806 23.7349 22.172C25.3689 19.924 26.1979 17.911 26.1979 16.187C26.2072 14.7932 25.6637 13.4525 24.6864 12.4587C23.7091 11.4649 22.3777 10.899 20.9839 10.885V10.885ZM20.9839 18.485C20.4798 18.485 19.9869 18.3355 19.5678 18.0554C19.1486 17.7753 18.8219 17.3772 18.6289 16.9115C18.436 16.4457 18.3855 15.9332 18.4839 15.4387C18.5822 14.9443 18.825 14.4901 19.1815 14.1336C19.538 13.7771 19.9922 13.5343 20.4866 13.436C20.9811 13.3376 21.4936 13.3881 21.9594 13.581C22.4251 13.774 22.8232 14.1007 23.1033 14.5199C23.3834 14.939 23.5329 15.4319 23.5329 15.936C23.5321 16.6118 23.2633 17.2597 22.7854 17.7375C22.3076 18.2154 21.6597 18.4842 20.9839 18.485Z" fill="#D3F36B"/>
</g>
</g>
</g>
<defs>
<filter id="filter0_d_221_449" x="0.000976562" y="0.00390625" width="42" height="42" filterUnits="userSpaceOnUse" color-interpolation-filters="sRGB">
<feFlood flood-opacity="0" result="BackgroundImageFix"/>
<feColorMatrix in="SourceAlpha" type="matrix" values="0 0 0 0 0 0 0 0 0 0 0 0 0 0 0 0 0 0 127 0" result="hardAlpha"/>
<feOffset dy="3"/>
<feGaussianBlur stdDeviation="3"/>
<feColorMatrix type="matrix" values="0 0 0 0 0.803922 0 0 0 0 0.87451 0 0 0 0 0.921569 0 0 0 0.51 0"/>
<feBlend mode="normal" in2="BackgroundImageFix" result="effect1_dropShadow_221_449"/>
<feBlend mode="normal" in="SourceGraphic" in2="effect1_dropShadow_221_449" result="shape"/>
</filter>
</defs>
</svg>
