<svg width="50" height="50" viewBox="0 0 50 50" fill="none" xmlns="http://www.w3.org/2000/svg">
<g id="man-svgrepo-com 1" clip-path="url(#clip0_899_1144)">
<g id="Group">
<g id="Group_2">
<path id="Vector" d="M47.6029 39.7408C45.8549 33.8226 37.0812 34.4791 33.2943 32.7795C29.5075 31.08 30.0986 25.3776 29.6185 24.3855H20.3805C19.9011 25.3776 20.4924 31.0807 16.7047 32.7795C12.9179 34.4791 4.14327 33.8227 2.39606 39.7408C1.43216 43.0051 1.47793 44.0035 1.21191 47.6194C1.21191 47.6194 13.2509 50.0001 24.7277 50.0001C36.2045 50.0001 48.788 47.6194 48.788 47.6194C48.521 44.0025 48.5668 43.0051 47.6029 39.7408Z" fill="#E8C59E"/>
<path id="Vector_2" d="M47.6029 39.7408C45.8549 33.8226 37.0813 34.4791 33.2943 32.7795C29.5075 31.08 30.0987 25.3776 29.6185 24.3855H24.7269C24.7269 24.3855 24.6142 32.3839 28.401 34.0834C32.1878 35.783 40.9624 35.1266 42.7096 41.0447C43.6277 44.1532 43.6295 45.2069 43.8577 48.4237C46.8728 47.9823 48.7865 47.6202 48.7865 47.6202C48.5211 44.0025 48.5668 43.0051 47.6029 39.7408Z" fill="#DDB58E"/>
<path id="Vector_3" d="M19.1372 30.2789C20.6703 31.5265 22.4667 32.7635 24.9902 33.1212C27.5198 32.7626 29.3118 31.5 30.8466 30.2472C29.57 27.9001 29.9647 25.1009 29.6192 24.3845H20.3803C20.0332 25.1017 20.4201 27.9308 19.1372 30.2789Z" fill="#CCA281"/>
<path id="Vector_4" d="M34.0288 18.2618C33.7011 20.084 34.2387 21.7057 35.2296 21.8839C36.2204 22.0621 37.2894 20.7293 37.6171 18.9071C37.9448 17.0849 37.4072 15.4632 36.4163 15.285C35.4255 15.1068 34.3565 16.4396 34.0288 18.2618Z" fill="#DDB58E"/>
<path id="Vector_5" d="M13.5562 15.2865C12.5654 15.4647 12.0278 17.0864 12.3555 18.9086C12.6832 20.7309 13.7521 22.0636 14.743 21.8854C15.7339 21.7072 16.2714 20.0855 15.9437 18.2633C15.616 16.4411 14.5471 15.1083 13.5562 15.2865Z" fill="#E8C59E"/>
<path id="Vector_6" d="M35.0576 7.4248H24.9905H14.9286C14.9286 7.4248 9.28705 30.4076 24.9903 32.6323C40.6999 30.4076 35.0576 7.4248 35.0576 7.4248Z" fill="#E8C59E"/>
<path id="Vector_7" d="M24.9902 32.6323C40.6998 30.4076 35.0573 7.4248 35.0573 7.4248H32.7022C33.3471 17.0249 34.2397 22.1245 30.5366 27.6841C27.6026 32.0894 24.9902 32.6323 24.9902 32.6323Z" fill="#DDB58E"/>
<path id="Vector_8" d="M33.8691 11.7623C29.6575 11.5085 24.9818 13.6857 24.9818 13.6857C24.9818 13.6857 20.3078 11.5085 16.0962 11.7623C16.0962 11.7623 13.9905 13.6504 15.571 18.2972C14.5463 13.5694 16.0962 12.416 16.0962 12.416C20.3078 12.1622 24.9818 14.3394 24.9818 14.3394C24.9818 14.3394 29.6577 12.1622 33.8691 12.416C33.8691 12.416 35.492 13.7111 34.3943 18.2972C35.9749 13.6504 33.8691 11.7623 33.8691 11.7623Z" fill="#DDB58E"/>
<path id="Vector_9" d="M36.2673 6.18516C36.2673 6.18516 34.8303 0.00705407 24.9905 0C24.9879 0 24.9852 0 24.9825 0C24.9799 0 24.9772 0 24.9745 0C15.1347 0.00705407 13.6978 6.18516 13.6978 6.18516C12.5075 10.3993 13.3629 15.6144 13.3629 15.6144L14.4599 21.8947L15.5462 21.9502L15.5701 18.2964C13.9895 13.6496 16.0952 11.7615 16.0952 11.7615C20.3068 11.5077 24.9808 13.6849 24.9808 13.6849C24.9808 13.6849 29.6567 11.5077 33.8682 11.7615C33.8682 11.7615 35.9739 13.6496 34.3933 18.2964L34.4488 21.9502L35.5237 21.8938L36.6012 15.6144C36.6031 15.6144 37.4576 10.3983 36.2673 6.18516Z" fill="#545250"/>
<path id="Vector_10" d="M24.9832 7.49345C22.7751 6.31104 16.5503 6.31104 16.5503 6.31104C22.7204 7.0503 24.983 8.41675 24.983 8.41675C24.983 8.41675 27.2457 7.05014 33.4158 6.31104C33.415 6.31198 27.1903 6.31198 24.9832 7.49345Z" fill="#605E5B"/>
<path id="Vector_11" d="M9.68188 48.9418C13.985 49.4899 19.4168 49.9999 24.7279 49.9999C29.9703 49.9999 35.4444 49.503 39.8435 48.963C39.3977 43.6572 40.018 36.2607 40.1915 34.421C38.8312 34.1046 37.4541 33.8739 36.2108 33.6174C33.69 42.4281 27.0327 42.3885 24.7622 42.3885C22.4952 42.3885 15.8783 42.4766 13.3497 33.7063C12.0774 33.9582 10.6897 34.1971 9.33545 34.5345C9.51353 36.4209 10.1293 43.6616 9.68188 48.9418Z" fill="#EAE5DC"/>
<path id="Vector_12" d="M35.4478 35.7591C37.0645 36.1433 38.6495 36.6543 39.9473 37.4815C40.0415 36.0823 40.1376 34.9872 40.1904 34.4197C38.8301 34.1034 37.453 33.8727 36.2097 33.6162C35.987 34.3987 35.7307 35.1107 35.4478 35.7591Z" fill="#E0DBD3"/>
<path id="Vector_13" d="M47.6029 39.7409C46.4285 35.7638 42.0794 34.7558 38.2045 34.0068C38.2451 36.6201 36.4257 40.9744 35.3084 42.0968C31.4202 46.0025 24.6563 48.4238 24.6563 48.4238C24.6563 48.4238 18.3541 46.785 14.1461 42.0968C13.1091 40.9416 11.2817 36.4051 11.2941 34.1045C7.55211 34.8472 3.52032 35.9335 2.39606 39.7407C1.43216 43.005 1.47793 44.0034 1.21191 47.6193C1.21191 47.6193 13.2509 50 24.7277 50C36.2045 50 48.788 47.6193 48.788 47.6193C48.521 44.0026 48.5668 43.0052 47.6029 39.7409Z" fill="#3B8D93"/>
<path id="Vector_14" d="M47.6028 39.7409C46.4284 35.7638 42.0793 34.7558 38.2044 34.0068C38.2159 34.7303 38.0837 35.5874 37.8643 36.4729C40.1065 37.3047 41.9956 38.6254 42.7101 41.0448C43.6282 44.1532 43.6299 45.207 43.8582 48.4238C46.8732 47.9824 48.7869 47.6202 48.7869 47.6202C48.5209 44.0026 48.5667 43.0052 47.6028 39.7409Z" fill="#348789"/>
<path id="Vector_15" d="M38.2045 34.0058C37.5066 33.871 36.8237 33.7441 36.1771 33.6101L36.1832 34.0365C36.1973 34.9546 35.8669 36.3969 35.3004 37.8938C34.6784 39.5344 34.0722 40.4728 33.8756 40.6701C31.0024 43.5565 26.2437 45.6208 24.5751 46.2888C23.0164 45.7804 18.6948 44.1398 15.649 40.746C15.4596 40.5355 14.8613 39.5434 14.2181 37.8217C13.656 36.3159 13.3089 34.8957 13.3133 34.115L13.316 33.7123C12.6648 33.841 11.9839 33.9669 11.293 34.1036C11.2799 36.4032 13.108 40.9398 14.1451 42.0958C18.3531 46.784 24.6553 48.4229 24.6553 48.4229C24.6553 48.4229 31.4202 46.0025 35.3074 42.0958C36.4254 40.9733 38.2451 36.62 38.2045 34.0058Z" fill="#5C9EA0"/>
<path id="Vector_16" d="M37.8645 36.4719C38.084 35.5863 38.2161 34.729 38.2047 34.0058C37.5068 33.871 36.824 33.7441 36.1774 33.6101L36.1835 34.0365C36.1915 34.5254 36.1007 35.1625 35.9297 35.8779C36.5906 36.0472 37.2417 36.2411 37.8645 36.4719Z" fill="#51989E"/>
</g>
</g>
</g>
<defs>
<clipPath id="clip0_899_1144">
<rect width="50" height="50" fill="white"/>
</clipPath>
</defs>
</svg>
