<svg width="76" height="35" viewBox="0 0 76 35" fill="none" xmlns="http://www.w3.org/2000/svg">
<g id="mastercard-full-svgrepo-com 1" clip-path="url(#clip0_885_834)">
<path id="Vector" d="M81.1034 0.689697H-5.10346C-8.43621 0.689697 -11.1379 2.04056 -11.1379 3.70694V31.2931C-11.1379 32.9595 -8.43621 34.3104 -5.10346 34.3104H81.1034C84.4362 34.3104 87.1379 32.9595 87.1379 31.2931V3.70694C87.1379 2.04056 84.4362 0.689697 81.1034 0.689697Z" fill="white" stroke="#F3F3F3" stroke-width="13.7931"/>
<path id="Vector_2" fill-rule="evenodd" clip-rule="evenodd" d="M24.6361 26.8886V28.1617V29.4348H23.52V29.1257C23.1661 29.355 22.629 29.4989 21.899 29.4989C20.4597 29.4989 19.3314 28.9398 19.3314 28.1617C19.3314 27.3842 20.4597 26.8245 21.899 26.8245C22.629 26.8245 23.1661 26.9684 23.52 27.1977V26.8886H24.6361ZM22.0378 27.3465C21.0717 27.3465 20.4805 27.7142 20.4805 28.1617C20.4805 28.6092 21.0717 28.9769 22.0378 28.9769C22.9609 28.9769 23.584 28.6251 23.584 28.1617C23.584 27.6983 22.9609 27.3465 22.0378 27.3465ZM62.3497 28.1617C62.3497 27.7142 62.9409 27.3465 63.9069 27.3465C64.8312 27.3465 65.4531 27.6983 65.4531 28.1617C65.4531 28.6251 64.8312 28.9769 63.9069 28.9769C62.9409 28.9769 62.3497 28.6092 62.3497 28.1617ZM66.5066 25.866V28.1617V29.4348H65.3893V29.1257C65.0352 29.355 64.4981 29.4989 63.7681 29.4989C62.3288 29.4989 61.2005 28.9398 61.2005 28.1617C61.2005 27.3842 62.3288 26.8245 63.7681 26.8245C64.4981 26.8245 65.0352 26.9684 65.3893 27.1977V25.866H66.5066ZM38.4893 27.3203C39.2083 27.3203 39.6704 27.544 39.7885 27.9379H37.125C37.2442 27.5703 37.694 27.3203 38.4893 27.3203ZM35.9549 28.1617C35.9549 27.3678 37.0069 26.8245 38.5114 26.8245C39.9495 26.8245 40.9376 27.3678 40.9486 28.1617C40.9486 28.2361 40.9376 28.3056 40.9266 28.3745H37.1152C37.2762 28.833 37.9312 28.9983 38.6502 28.9983C39.1652 28.9983 39.7135 28.9019 40.1436 28.7318L40.6905 29.1422C40.0674 29.4031 39.3595 29.4989 38.5864 29.4989C37.05 29.4989 35.9549 28.9715 35.9549 28.1617ZM51.9873 28.1617C51.9873 27.7142 52.5785 27.3465 53.5445 27.3465C54.4674 27.3465 55.0907 27.6983 55.0907 28.1617C55.0907 28.6251 54.4674 28.9769 53.5445 28.9769C52.5785 28.9769 51.9873 28.6092 51.9873 28.1617ZM56.1428 26.8886V28.1617V29.4348H55.0267V29.1257C54.6716 29.355 54.1357 29.4989 53.4055 29.4989C51.9662 29.4989 50.838 28.9398 50.838 28.1617C50.838 27.3842 51.9662 26.8245 53.4055 26.8245C54.1357 26.8245 54.6716 26.9684 55.0267 27.1977V26.8886H56.1428ZM45.6843 28.1617C45.6843 28.9342 46.7685 29.4989 48.4228 29.4989C49.1959 29.4989 49.7109 29.4136 50.269 29.1952L49.733 28.7477C49.314 28.8971 48.8738 28.9769 48.3897 28.9769C47.4985 28.9715 46.8435 28.6519 46.8435 28.1617C46.8435 27.6715 47.4985 27.3519 48.3897 27.3465C48.8738 27.3465 49.314 27.4263 49.733 27.5757L50.269 27.1281C49.7109 26.9098 49.1959 26.8245 48.4228 26.8245C46.7685 26.8245 45.6843 27.3892 45.6843 28.1617ZM58.7202 27.1977C59.0102 26.9739 59.4293 26.8245 60.0735 26.8245C60.2995 26.8245 60.6216 26.8459 60.8686 26.894L60.5245 27.416C60.2885 27.3678 60.0524 27.3519 59.8264 27.3519C59.0962 27.3519 58.7312 27.5861 58.7312 28.0074V29.4348H57.614V26.8886H58.7202V27.1977ZM30.1561 27.091C29.6188 26.9154 28.879 26.8245 28.0628 26.8245C26.7624 26.8245 25.9254 27.1336 25.9254 27.6398C25.9254 28.055 26.5486 28.3111 27.6966 28.391L28.2238 28.4281C28.8359 28.4709 29.1249 28.5507 29.1249 28.6946C29.1249 28.8916 28.7167 29.0037 27.9547 29.0037C27.1816 29.0037 26.6236 28.8812 26.2474 28.7373L25.7214 29.1684C26.3335 29.3922 27.1066 29.4989 27.9436 29.4989C29.4259 29.4989 30.285 29.1525 30.285 28.6678C30.285 28.2202 29.609 27.9861 28.4918 27.9062L27.9657 27.8684C27.4828 27.8367 27.0955 27.7892 27.0955 27.6184C27.0955 27.4318 27.4605 27.3203 28.0726 27.3203C28.7278 27.3203 29.3619 27.4428 29.673 27.5386L30.1561 27.091ZM43.2042 27.1977C43.493 26.9739 43.9121 26.8245 44.5561 26.8245C44.7823 26.8245 45.1043 26.8459 45.3512 26.894L45.0071 27.416C44.7712 27.3678 44.5352 27.3519 44.309 27.3519C43.579 27.3519 43.214 27.5861 43.214 28.0074V29.4348H42.098V26.8886H43.2042V27.1977ZM35.0317 26.8886H33.2066V26.116H32.0783V26.8886H31.0373V27.3946H32.0783V28.5562C32.0783 29.1471 32.5404 29.4989 33.8605 29.4989C34.3447 29.4989 34.9028 29.4245 35.2567 29.3019L34.9347 28.8275C34.6016 28.9233 34.2366 28.9715 33.9466 28.9715C33.3885 28.9715 33.2066 28.8007 33.2066 28.5452V27.3946H35.0317V26.8886ZM18.3443 27.8367V29.4348H17.2161V28.0178C17.2161 27.5861 16.8511 27.3465 16.089 27.3465C15.3478 27.3465 14.8328 27.5812 14.8328 28.0233V29.4348H13.7045V28.0178C13.7045 27.5861 13.3297 27.3465 12.5885 27.3465C11.8252 27.3465 11.3312 27.5812 11.3312 28.0233V29.4348H10.2042V26.8886H11.3214V27.2025C11.7405 26.9044 12.2764 26.8245 12.8245 26.8245C13.6086 26.8245 14.1667 26.9953 14.5207 27.2775C14.9938 26.9203 15.6699 26.819 16.325 26.8245C17.5712 26.83 18.3443 27.2348 18.3443 27.8367Z" fill="#231F20"/>
<path id="Vector_3" d="M46.7008 22.5615H29.786V7.4812H46.7008V22.5615Z" fill="#FF5F00"/>
<path id="Vector_4" d="M30.8591 15.0217C30.8591 11.9626 33.7462 9.23756 38.2422 7.4815C34.9545 6.19736 30.805 5.43091 26.2955 5.43091C15.6197 5.43091 6.96552 9.7248 6.96552 15.0217C6.96552 20.3186 15.6197 24.6125 26.2955 24.6125C30.805 24.6125 34.9545 23.846 38.2422 22.5619C33.7462 20.8058 30.8591 18.0808 30.8591 15.0217Z" fill="#EB001B"/>
<path id="Vector_5" d="M69.5204 15.0217C69.5204 20.3186 60.8662 24.6125 50.1904 24.6125C45.6807 24.6125 41.5314 23.846 38.2422 22.5619C42.7395 20.8058 45.6267 18.0808 45.6267 15.0217C45.6267 11.9626 42.7395 9.23756 38.2422 7.4815C41.5314 6.19736 45.6807 5.43091 50.1904 5.43091C60.8662 5.43091 69.5204 9.7248 69.5204 15.0217Z" fill="#F79E1B"/>
</g>
<defs>
<clipPath id="clip0_885_834">
<rect width="100" height="50" fill="white" transform="translate(-12 -7.5)"/>
</clipPath>
</defs>
</svg>
