<svg width="47" height="50" viewBox="0 0 47 50" fill="none" xmlns="http://www.w3.org/2000/svg">
<g id="Mask Group 1">
<g id="Group 227">
<path id="Path 87" d="M14.2174 13.5919C13.7982 11.2277 13.839 8.80477 14.3374 6.45595C14.5249 5.83503 14.8638 5.27044 15.3236 4.81294C15.7833 4.35544 16.3496 4.01937 16.9714 3.83495C16.9944 3.82895 17.4374 0.895944 23.4664 0.674944C29.4954 0.453944 34.2784 3.01995 33.1034 13.603L31.5974 15.995L23.4114 8.08794C23.4114 8.08794 16.3964 12.629 15.7774 14.781C15.1584 16.933 14.2174 13.5919 14.2174 13.5919Z" fill="#153144"/>
<path id="Path 88" d="M46.0396 50.257H0.889648C0.889648 50.257 0.889634 37.01 2.94363 35.701C4.30863 34.836 10.5266 32.6549 14.5436 31.2849C16.5816 30.5849 18.0556 30.106 18.0556 30.106H28.8766C28.8766 30.106 30.3666 30.594 32.4206 31.295C36.4416 32.665 42.6276 34.8339 43.9896 35.6949C46.0396 37.0099 46.0396 50.257 46.0396 50.257Z" fill="#FFD5C2"/>
<path id="Path 89" d="M28.8756 30.106L23.7936 30.959V31.1L23.3707 31.034L22.9566 31.1V30.959L18.0566 30.106L18.3216 27.966L18.9026 23.266H27.8496L28.3496 26.599L28.8756 30.106Z" fill="#FFD5C2"/>
<path id="Path 90" d="M28.3429 26.599C25.1829 27.9404 21.7218 28.413 18.3179 27.968L18.8989 23.2679H27.8459L28.3429 26.599Z" fill="#F6AE8D"/>
<path id="Path 91" d="M31.2307 15.573C31.2307 15.573 31.9767 12.622 33.8307 13.93C35.6847 15.238 33.8307 19.552 31.2157 19.53C31.2167 19.526 30.5167 16.638 31.2307 15.573Z" fill="#FFD5C2"/>
<path id="Path 92" d="M33.1925 15.307C32.8133 15.4814 32.4865 15.752 32.2445 16.092C31.9582 16.3895 31.739 16.7448 31.6015 17.134C31.5705 17.253 31.7375 17.306 31.8065 17.225C32.0015 16.997 32.1495 16.734 32.3275 16.492C32.4787 16.6447 32.6641 16.7592 32.8685 16.826C33.0305 16.865 33.1235 16.659 33.0405 16.541C32.919 16.3923 32.7641 16.2745 32.5885 16.197C32.855 15.9841 33.1038 15.7501 33.3325 15.497C33.3491 15.4762 33.3584 15.4504 33.3588 15.4238C33.3593 15.3971 33.351 15.371 33.3351 15.3496C33.3193 15.3282 33.2968 15.3126 33.2712 15.3052C33.2456 15.2979 33.2183 15.2992 33.1935 15.309L33.1925 15.307Z" fill="#F6AE8D"/>
<path id="Path 93" d="M15.7357 15.2939C15.7357 15.2939 14.9897 12.3429 13.1357 13.6509C11.2817 14.9589 13.1357 19.2729 15.7507 19.2509C15.7487 19.2509 16.4457 16.3509 15.7357 15.2939Z" fill="#FFD5C2"/>
<path id="Path 94" d="M13.7745 15.0279C14.1532 15.2026 14.4796 15.4732 14.7215 15.8129C15.0097 16.11 15.231 16.4653 15.3705 16.8549C15.4015 16.9739 15.2345 17.0269 15.1635 16.9459C14.9685 16.7179 14.8205 16.4549 14.6425 16.2129C14.4912 16.3656 14.3057 16.4801 14.1015 16.5469C13.9395 16.5859 13.8465 16.3809 13.9295 16.2619C14.0507 16.113 14.2056 15.9951 14.3815 15.9179C14.1149 15.7052 13.8661 15.471 13.6375 15.2179C13.6215 15.1972 13.6127 15.172 13.6123 15.1459C13.6119 15.1198 13.62 15.0943 13.6353 15.0731C13.6506 15.052 13.6723 15.0364 13.6972 15.0286C13.7221 15.0208 13.7489 15.0213 13.7735 15.0299L13.7745 15.0279Z" fill="#F6AE8D"/>
<path id="Path 95" d="M31.6124 11.8869C29.8704 3.53493 23.4654 4.12093 23.4654 4.12093C23.4654 4.12093 17.0594 3.53493 15.3184 11.8869C14.6379 14.9921 14.8972 18.2296 16.0634 21.1869C17.1924 23.9629 19.3634 26.9529 23.4634 26.9529C27.5634 26.9529 29.7344 23.9629 30.8634 21.1869C32.0307 18.23 32.2914 14.9925 31.6124 11.8869Z" fill="#FFD5C2"/>
<path id="Path 96" d="M23.9236 18.591C23.5486 18.554 22.7076 18.818 22.5126 18.426C22.5358 17.5213 22.6719 16.623 22.9176 15.752C23.2088 14.5812 23.4361 13.3955 23.5986 12.2C23.5975 12.1849 23.5916 12.1707 23.5817 12.1593C23.5719 12.1479 23.5586 12.1399 23.5439 12.1367C23.5292 12.1334 23.5138 12.135 23.5001 12.1412C23.4863 12.1474 23.4749 12.1578 23.4676 12.171C22.8306 14.2966 22.3674 16.4704 22.0826 18.671C22.0768 18.6985 22.0773 18.727 22.0842 18.7542C22.0911 18.7815 22.104 18.8069 22.1222 18.8284C22.1403 18.8499 22.1631 18.867 22.1888 18.8783C22.2145 18.8897 22.2425 18.895 22.2706 18.894C22.8116 18.858 23.3516 18.947 23.8926 18.923C24.0776 18.911 24.1166 18.611 23.9236 18.591Z" fill="#F6AE8D"/>
<path id="Path 97" d="M20.8354 20.9839H25.9855C25.9855 20.9839 25.0195 22.8089 23.4115 22.8089C21.8035 22.8089 20.8354 20.9839 20.8354 20.9839Z" fill="white"/>
<path id="Path 98" d="M19.9135 14.824C19.9135 14.824 19.2135 15.086 19.3135 13.839C19.4135 12.719 19.9135 12.866 19.9135 12.866C19.9135 12.866 20.4035 12.866 20.3285 13.839C20.2535 14.812 19.9135 14.824 19.9135 14.824Z" fill="#3B2645"/>
<path id="Path 99" d="M26.6337 14.824C26.6337 14.824 25.9337 15.086 26.0337 13.839C26.1337 12.719 26.6337 12.866 26.6337 12.866C26.6337 12.866 27.1237 12.866 27.0487 13.839C26.9737 14.812 26.6337 14.824 26.6337 14.824Z" fill="#3B2645"/>
<path id="Path 100" d="M20.8595 11.1469C20.2545 10.8389 19.1235 10.7569 18.6815 11.3869C18.6653 11.4152 18.6567 11.4473 18.6567 11.48C18.6568 11.5127 18.6653 11.5448 18.6816 11.5731C18.6979 11.6014 18.7213 11.625 18.7496 11.6414C18.7778 11.6579 18.8098 11.6667 18.8425 11.6669C19.1425 11.6519 19.4095 11.5059 19.7075 11.4809C20.0294 11.4667 20.3509 11.5164 20.6535 11.6269C20.7146 11.6426 20.7794 11.6359 20.836 11.6081C20.8926 11.5802 20.9373 11.5329 20.9621 11.4749C20.9869 11.4169 20.9901 11.3519 20.9711 11.2917C20.9521 11.2315 20.9121 11.1801 20.8585 11.1469H20.8595Z" fill="#3B2645"/>
<path id="Path 101" d="M27.5797 11.1469C26.9747 10.8389 25.8437 10.7569 25.4017 11.3869C25.3855 11.4152 25.3769 11.4473 25.377 11.48C25.377 11.5127 25.3856 11.5448 25.4018 11.5731C25.4181 11.6014 25.4415 11.625 25.4698 11.6414C25.498 11.6579 25.53 11.6667 25.5627 11.6669C25.8627 11.6519 26.1297 11.5059 26.4277 11.4809C26.7496 11.4667 27.0711 11.5164 27.3737 11.6269C27.4348 11.6426 27.4996 11.6359 27.5562 11.6081C27.6128 11.5802 27.6576 11.5329 27.6823 11.4749C27.7071 11.4169 27.7103 11.3519 27.6913 11.2917C27.6723 11.2315 27.6323 11.1801 27.5787 11.1469H27.5797Z" fill="#3B2645"/>
<path id="Path 102" d="M18.6538 5.76802C16.9079 8.18928 15.6738 10.9409 15.0268 13.855L14.2178 12.439C14.2178 12.439 15.5418 4.61602 18.6538 5.76802Z" fill="#153144"/>
<path id="Path 103" d="M46.0396 50.256H0.889648C0.889648 50.256 0.889634 37.009 2.94363 35.7C4.30863 34.835 10.5266 32.6539 14.5436 31.2839C15.3316 33.7839 17.7436 39.3759 23.4896 39.3759C29.2356 39.3759 31.6316 33.798 32.4196 31.295C36.4406 32.665 42.6266 34.8339 43.9886 35.6949C46.0396 37.0089 46.0396 50.256 46.0396 50.256Z" fill="#153144"/>
<path id="Path 104" d="M18.6546 5.76694C18.6546 5.76694 22.6906 8.59193 25.9876 7.66693C29.2846 6.74193 30.4796 13.4029 28.3456 15.9989C28.3456 15.9989 33.6826 12.8989 31.9786 7.66693C30.2746 2.43493 18.4646 -0.133062 18.6546 5.76694Z" fill="#153144"/>
</g>
</g>
</svg>
