<svg width="42" height="43" viewBox="0 0 42 43" fill="none" xmlns="http://www.w3.org/2000/svg">
<g id="Group 1596">
<g id="Group" filter="url(#filter0_d_221_457)">
<path id="Rectangle 993" d="M31.001 3.99512H11.001C8.23955 3.99512 6.00098 6.23369 6.00098 8.99512V28.9951C6.00098 31.7565 8.23955 33.9951 11.001 33.9951H31.001C33.7624 33.9951 36.001 31.7565 36.001 28.9951V8.99512C36.001 6.23369 33.7624 3.99512 31.001 3.99512Z" fill="white"/>
</g>
<g id="Group 1595">
<path id="star" d="M27.242 17.698C27.2005 17.5693 27.1221 17.4556 27.0164 17.3711C26.9108 17.2866 26.7827 17.2351 26.648 17.223L22.9 16.883L21.418 13.414C21.3648 13.2897 21.2764 13.1837 21.1636 13.1093C21.0508 13.0348 20.9186 12.9951 20.7835 12.9951C20.6483 12.9951 20.5161 13.0348 20.4033 13.1093C20.2905 13.1837 20.2021 13.2897 20.149 13.414L18.666 16.883L14.917 17.223C14.7824 17.2355 14.6545 17.2872 14.5491 17.3717C14.4436 17.4561 14.3652 17.5697 14.3236 17.6982C14.282 17.8268 14.279 17.9647 14.315 18.0949C14.3509 18.2252 14.4243 18.342 14.526 18.431L17.359 20.916L16.524 24.596C16.4935 24.7278 16.5024 24.8656 16.5497 24.9923C16.5971 25.1191 16.6806 25.229 16.79 25.3086C16.8994 25.3881 17.0298 25.4337 17.165 25.4397C17.3001 25.4456 17.434 25.4116 17.55 25.342L20.783 23.41L24.015 25.342C24.131 25.4115 24.2649 25.4453 24.4 25.4393C24.5351 25.4333 24.6654 25.3877 24.7749 25.3082C24.8843 25.2287 24.9679 25.1189 25.0154 24.9922C25.0629 24.8656 25.0721 24.7278 25.042 24.596L24.207 20.916L27.04 18.432C27.1416 18.3427 27.2147 18.2255 27.2502 18.095C27.2858 17.9645 27.2822 17.8265 27.24 17.698H27.242Z" fill="#FFC107"/>
</g>
</g>
<defs>
<filter id="filter0_d_221_457" x="0.000976562" y="0.995117" width="42" height="42" filterUnits="userSpaceOnUse" color-interpolation-filters="sRGB">
<feFlood flood-opacity="0" result="BackgroundImageFix"/>
<feColorMatrix in="SourceAlpha" type="matrix" values="0 0 0 0 0 0 0 0 0 0 0 0 0 0 0 0 0 0 127 0" result="hardAlpha"/>
<feOffset dy="3"/>
<feGaussianBlur stdDeviation="3"/>
<feColorMatrix type="matrix" values="0 0 0 0 0.803922 0 0 0 0 0.87451 0 0 0 0 0.921569 0 0 0 0.51 0"/>
<feBlend mode="normal" in2="BackgroundImageFix" result="effect1_dropShadow_221_457"/>
<feBlend mode="normal" in="SourceGraphic" in2="effect1_dropShadow_221_457" result="shape"/>
</filter>
</defs>
</svg>
