<svg width="70" height="50" viewBox="0 0 70 50" fill="none" xmlns="http://www.w3.org/2000/svg">
<g id="visa-svgrepo-com 1">
<path id="Vector" d="M48.2388 19.1376C46.8829 18.7847 45.4497 18.6076 44.0067 18.6147C39.34 18.6147 36.0442 20.2939 36.0208 22.7043C35.9917 24.4751 38.3629 25.473 40.1567 26.0647C41.9971 26.673 42.6125 27.0564 42.6067 27.6001C42.595 28.4272 41.1367 28.8022 39.7804 28.8022C37.9167 28.8022 36.8988 28.6168 35.3325 28.1522L34.7521 27.9585L34.09 30.7335C35.2246 31.071 37.2692 31.3605 39.3808 31.3855C44.3421 31.3855 47.5854 29.7168 47.6233 27.1522C47.6642 25.7376 46.3808 24.6689 43.68 23.7855C42.0379 23.2126 41.02 22.8293 41.02 22.248C41.02 21.7335 41.8921 21.1835 43.715 21.1835C44.9282 21.1625 46.1339 21.3251 47.2529 21.6605L47.6904 21.8001L48.3525 19.1189L48.2388 19.1376ZM60.3488 18.8397H56.7029C55.5683 18.8397 54.7138 19.0626 54.2179 19.8668L47.2063 31.2126H52.1675L53.1592 29.3522L59.2142 29.3564C59.3571 29.7918 59.7946 31.2126 59.7946 31.2126H64.1696L60.3488 18.8397ZM29.3096 18.7355H34.0375L31.08 31.1147H26.3579L29.3096 18.7314V18.7355ZM17.3075 25.5585L17.7975 27.2772L22.4175 18.8397H27.4254L19.985 31.196H14.9888L10.9054 20.7335C10.8393 20.5609 10.684 20.4128 10.4708 20.3189C8.9991 19.7758 7.43969 19.3637 5.82751 19.0918L5.89168 18.8314H13.5013C14.5338 18.8605 15.365 19.0918 15.6421 19.8793L17.3046 25.5647L17.3075 25.5585ZM54.5154 26.821L56.3996 23.3585C56.3763 23.396 56.7875 22.6439 57.0267 22.1793L57.3504 23.248L58.4442 26.8189H54.5125L54.5154 26.821Z" fill="#4537E2"/>
</g>
</svg>
